# xmcd CD database file
#
# Track frame offsets:
#	150
#	16182
#	53356
#	67977
#	93147
#	112560
#	122131
#	137644
#	180816
#	209586
#
# Disc length: 3158 seconds
#
# Revision: 0
# Processed by: cddbd v1.5.2PL0 Copyright (c) Steve Scherf et al.
# Submitted via: CDex 1.50
#
DISCID=6f0c540a
DTITLE=Hélène Labarrière - Les temps changent
DYEAR=2007
DGENRE=Jazz
TTITLE0=01 Soizig
TTITLE1=02 Un jour plus tôt
TTITLE2=03 Regard suspendu
TTITLE3=04 September the bass
TTITLE4=05 Good boy
TTITLE5=06 Une cure d'inefficacité
TTITLE6=07 Histoire de collection
TTITLE7=08 Une femme sous influence
TTITLE8=09 La complainte de la butte
TTITLE9=10 Donde estan ustedes
EXTD=YEAR: 2007
EXTT0=
EXTT1=
EXTT2=
EXTT3=
EXTT4=
EXTT5=
EXTT6=
EXTT7=
EXTT8=
EXTT9=
PLAYORDER=
